# xmcd
# 
# Track frame offsets:
#     150
#     10365
#     26552
#     37465
#     50420
#     64147
#     81392
# 
# Disc length: 1130
# 
# Revision: 19
# Processed by: cddbd v1.5.2PL0 Copyright (c) Steve Scherf et al.
# Submitted via: BonkEnc v1.0.8
# 
DISCID=5f046807
DTITLE=Marisa Monte - Barulhinho Bom [CD 2 - Em Estúdio]
DYEAR=1996
DGENRE=MPB
TTITLE0=Arrepio
TTITLE1=Magamalabares
TTITLE2=Chuva No Brejo
TTITLE3=Cérebro Eletrônico
TTITLE4=Tempos Modernos
TTITLE5=Maraçá
TTITLE6=Blanco
EXTD=YEAR: 1996\nUma Viagem Musical (A Musical Trip]\nCD1-Live_CD2-Studio
EXTT0=
EXTT1=
EXTT2=
EXTT3=
EXTT4=
EXTT5=
EXTT6=
PLAYORDER=
